<svg width="31" height="41" viewBox="0 0 31 41" fill="none" xmlns="http://www.w3.org/2000/svg">
<path d="M9.16699 17.2333V25.3493" stroke="#717171" stroke-width="2.66667"/>
<path d="M6.50269 30.6746H11.8334V25.3493H6.50269V30.6746Z" stroke="#717171" stroke-width="2.66667" stroke-linecap="round" stroke-linejoin="round"/>
<path d="M23.3334 19.6653V20.332H24.0001L29.3334 20.3333C29.6694 20.3333 29.9481 20.5813 29.9934 20.9053L30.0001 21.0186V33C30.0001 33.336 29.7507 33.6146 29.4281 33.66L29.3134 33.6666H24.0001H23.3334V34.3333C23.3334 36.1026 22.4081 37.7573 20.8027 38.896C19.6014 39.748 18.0934 40.256 16.4827 40.324L16.0947 40.3333H6.66675C3.44275 40.3333 0.812082 37.7893 0.672081 34.6L0.666748 34.3253V17C0.666748 16.664 0.916082 16.3853 1.23875 16.34L1.35208 16.3333H22.6667C23.0027 16.3333 23.2814 16.5813 23.3267 16.9053L23.3334 17.0186V19.6653ZM8.66675 18.332V17.6653H8.00008L2.66675 17.6666H2.00008V18.3333V34.3333C2.00008 36.7266 3.80141 38.6986 6.12275 38.968L6.13208 38.9693L6.14275 38.9706L6.37341 38.9906L6.39341 38.992H6.41208L6.64675 38.9986L6.65741 39H6.66675H16.1027C17.5627 39 18.9494 38.576 20.0307 37.8093C21.1641 37.0053 21.8907 35.8746 21.9881 34.6213L21.9894 34.608L21.9907 34.5946L21.9987 34.3586L22.0001 34.3453V34.3333V18.3333V17.6666H21.3334L10.6667 17.6653H10.0001V18.332M28.6667 22.3333V21.6666H28.0001H24.0001H23.3334V22.3333V31.6666V32.3333H24.0001H28.0001H28.6667V31.6666V22.3333Z" fill="#717171"/>
<path d="M8.66675 18.332V17.6653H8.00008L2.66675 17.6666H2.00008V18.3333V34.3333C2.00008 36.7266 3.80141 38.6986 6.12275 38.968L6.13208 38.9693L6.14275 38.9706L6.37342 38.9906L6.39341 38.992H6.41208L6.64675 38.9986L6.65741 39H6.66675H16.1027C17.5627 39 18.9494 38.576 20.0307 37.8093C21.1641 37.0053 21.8907 35.8746 21.9881 34.6213L21.9894 34.608L21.9907 34.5946L21.9987 34.3586L22.0001 34.3453V34.3333V18.3333V17.6666H21.3334L10.6667 17.6653H10.0001V18.332M23.3334 19.6653V20.332H24.0001L29.3334 20.3333C29.6694 20.3333 29.9481 20.5813 29.9934 20.9053L30.0001 21.0186V33C30.0001 33.336 29.7507 33.6146 29.4281 33.66L29.3134 33.6666H24.0001H23.3334V34.3333C23.3334 36.1026 22.4081 37.7573 20.8027 38.896C19.6014 39.748 18.0934 40.256 16.4827 40.324L16.0947 40.3333H6.66675C3.44275 40.3333 0.812082 37.7893 0.672081 34.6L0.666748 34.3253V17C0.666748 16.664 0.916082 16.3853 1.23875 16.34L1.35208 16.3333H22.6667C23.0027 16.3333 23.2814 16.5813 23.3267 16.9053L23.3334 17.0186V19.6653ZM28.6667 22.3333V21.6666H28.0001H24.0001H23.3334V22.3333V31.6666V32.3333H24.0001H28.0001H28.6667V31.6666V22.3333Z" stroke="#717171" stroke-width="1.33333"/>
<mask id="mask0_7455_40" style="mask-type:alpha" maskUnits="userSpaceOnUse" x="3" y="-1" width="24" height="17">
<path d="M10.5 0C10.5 0 10.5 5.16667 7.49997 8C4.66131 10.6813 5.49997 14.8333 5.49997 14.8333" stroke="#FF0000" stroke-width="3.73333"/>
<path d="M17.8454 -3.05176e-05C17.8454 -3.05176e-05 17.8454 5.16664 14.8454 7.99997C12.0068 10.6813 12.8454 14.8333 12.8454 14.8333" stroke="#FF0000" stroke-width="3.73333"/>
<path d="M24.8667 -3.05176e-05C24.8667 -3.05176e-05 24.8667 5.16664 21.8667 7.99997C19.028 10.6813 19.8667 14.8333 19.8667 14.8333" stroke="#FF0000" stroke-width="3.73333"/>
</mask>
<g mask="url(#mask0_7455_40)">
<path d="M14.9666 9.0906L14.9613 9.0986L14.5013 9.83593L14.4973 9.8426C13.6133 11.3026 13.0906 12.4253 12.8439 13.6653L11.4813 13.6666C11.7226 12.2093 12.2839 10.9253 13.3466 9.1706L13.8346 8.38393L14.1026 7.9666C14.1026 7.9666 14.1026 7.9666 14.1039 7.9666C15.0399 6.51993 15.6839 5.40926 16.0893 4.3426C16.4266 3.45726 16.5919 2.61993 16.6413 1.6666L17.9773 1.66793C17.8853 3.76393 17.3319 5.25326 15.9759 7.49326L15.4866 8.27859L14.9666 9.0906ZM21.6333 9.0906L21.6279 9.0986L21.1679 9.83593L21.1639 9.8426C20.2799 11.3026 19.7586 12.4253 19.5106 13.6653L18.1479 13.6666C18.3893 12.2093 18.9506 10.9253 20.0133 9.1706L20.5013 8.38393L20.7693 7.9666C20.7693 7.9666 20.7693 7.9666 20.7706 7.9666C21.7066 6.51993 22.3506 5.40926 22.7559 4.3426C23.0933 3.45726 23.2586 2.61993 23.3079 1.6666L24.6439 1.66793C24.5519 3.76393 23.9986 5.25326 22.6426 7.49326L22.1533 8.27859L21.6333 9.0906ZM8.87593 6.82926C8.87593 6.82926 8.87593 6.8306 8.8746 6.8306L8.55326 7.3266V7.32793C7.61993 8.75726 6.9746 9.8666 6.56926 10.9413C6.2306 11.8359 6.06393 12.6906 6.0146 13.6653L4.67993 13.6666C4.7266 12.5733 4.8946 11.6573 5.21326 10.7426C5.59993 9.63726 6.21593 8.5026 7.1586 7.02793L7.48526 6.52393C7.4866 6.52393 7.4866 6.5226 7.4866 6.5226C8.7826 4.53593 9.50793 3.1906 9.8146 1.6666H11.1773C10.9026 3.30526 10.2213 4.7266 8.87593 6.82926Z" fill="#717171"/>
<path d="M14.9666 9.0906L14.9613 9.0986L14.5013 9.83593L14.4973 9.8426C13.6133 11.3026 13.0906 12.4253 12.8439 13.6653L11.4813 13.6666C11.7226 12.2093 12.2839 10.9253 13.3466 9.1706L13.8346 8.38393L14.1026 7.9666C14.1026 7.9666 14.1026 7.9666 14.1039 7.9666C15.0399 6.51993 15.6839 5.40926 16.0893 4.3426C16.4266 3.45726 16.5919 2.61993 16.6413 1.6666L17.9773 1.66793C17.8853 3.76393 17.3319 5.25326 15.9759 7.49326L15.4866 8.2786L14.9666 9.0906ZM21.6333 9.0906L21.6279 9.0986L21.1679 9.83593L21.1639 9.8426C20.2799 11.3026 19.7586 12.4253 19.5106 13.6653L18.1479 13.6666C18.3893 12.2093 18.9506 10.9253 20.0133 9.1706L20.5013 8.38393L20.7693 7.9666C20.7693 7.9666 20.7693 7.9666 20.7706 7.9666C21.7066 6.51993 22.3506 5.40926 22.7559 4.3426C23.0933 3.45726 23.2586 2.61993 23.3079 1.6666L24.6439 1.66793C24.5519 3.76393 23.9986 5.25326 22.6426 7.49326L22.1533 8.2786L21.6333 9.0906ZM8.87593 6.82926C8.87593 6.82926 8.87593 6.8306 8.8746 6.8306L8.55326 7.3266V7.32793C7.61993 8.75726 6.9746 9.8666 6.56926 10.9413C6.2306 11.8359 6.06393 12.6906 6.0146 13.6653L4.67993 13.6666C4.7266 12.5733 4.8946 11.6573 5.21326 10.7426C5.59993 9.63726 6.21593 8.5026 7.1586 7.02793L7.48526 6.52393C7.4866 6.52393 7.4866 6.5226 7.4866 6.5226C8.7826 4.53593 9.50793 3.1906 9.8146 1.6666H11.1773C10.9026 3.30526 10.2213 4.7266 8.87593 6.82926Z" stroke="#717171" stroke-width="1.33333"/>
</g>
</svg>
